<svg xmlns="http://www.w3.org/2000/svg" viewBox="0 0 24 24" id="Shipping-Logistic-Free-Shipping-Delivery-Container--Streamline-Ultimate.svg" height="24" width="24"><desc>Shipping Logistic Free Shipping Delivery Container Streamline Icon: https://streamlinehq.com</desc><defs></defs><path d="M1.75 1.5h20.5s1 0 1 1v10s0 1 -1 1H1.75s-1 0 -1 -1v-10s0 -1 1 -1" fill="none" stroke="currentColor" stroke-linecap="round" stroke-linejoin="round" stroke-width="1.5"></path><path d="M2 20.5a2 2 0 1 0 4 0 2 2 0 1 0 -4 0" fill="none" stroke="currentColor" stroke-linecap="round" stroke-linejoin="round" stroke-width="1.5"></path><path d="M8 20.5a2 2 0 1 0 4 0 2 2 0 1 0 -4 0" fill="none" stroke="currentColor" stroke-linecap="round" stroke-linejoin="round" stroke-width="1.5"></path><path d="m0.75 16.5 22.5 0" fill="none" stroke="currentColor" stroke-linecap="round" stroke-linejoin="round" stroke-width="1.5"></path><path d="m14.5 19.5 2 0 0 3" fill="none" stroke="currentColor" stroke-linecap="round" stroke-linejoin="round" stroke-width="1.5"></path><path d="m16.5 19.5 0 -3" fill="none" stroke="currentColor" stroke-linecap="round" stroke-linejoin="round" stroke-width="1.5"></path><path d="m4.5 4 0 7" fill="none" stroke="currentColor" stroke-linecap="round" stroke-linejoin="round" stroke-width="1.5"></path><path d="m8.25 4 0 7" fill="none" stroke="currentColor" stroke-linecap="round" stroke-linejoin="round" stroke-width="1.5"></path><path d="m12 4 0 7" fill="none" stroke="currentColor" stroke-linecap="round" stroke-linejoin="round" stroke-width="1.5"></path><path d="m15.75 4 0 7" fill="none" stroke="currentColor" stroke-linecap="round" stroke-linejoin="round" stroke-width="1.5"></path><path d="m19.5 4 0 7" fill="none" stroke="currentColor" stroke-linecap="round" stroke-linejoin="round" stroke-width="1.5"></path></svg>
