<svg xmlns="http://www.w3.org/2000/svg" width="82" height="28" viewBox="0 0 82 28" fill="none">
  <path d="M71.7013 12.4029C71.8277 12.7401 72.1228 12.979 72.5865 13.1195C73.0502 13.26 73.816 13.3303 74.8839 13.3303C75.8113 13.3303 76.4927 13.2881 76.9283 13.2038C77.3639 13.1055 77.5817 12.9368 77.5817 12.698C77.5817 12.5856 77.5325 12.5083 77.4342 12.4661C77.3499 12.4099 77.1953 12.3678 76.9705 12.3397C76.7457 12.3116 76.4506 12.2905 76.0853 12.2764C75.734 12.2624 75.2843 12.2483 74.7363 12.2343C73.2891 12.1921 72.1017 12.0867 71.1744 11.9181C70.247 11.7355 69.5233 11.4966 69.0034 11.2015C68.4835 10.9064 68.1252 10.5481 67.9285 10.1266C67.7318 9.69101 67.6334 9.19922 67.6334 8.65122C67.6334 7.97676 67.7529 7.40769 67.9917 6.944C68.2447 6.46625 68.6522 6.07984 69.2142 5.78477C69.7763 5.47564 70.4999 5.25082 71.3851 5.11031C72.2844 4.9698 73.3804 4.89954 74.6731 4.89954C75.9237 4.89954 76.9775 4.9698 77.8346 5.11031C78.7058 5.25082 79.4084 5.48267 79.9423 5.80585C80.4903 6.11497 80.8838 6.52246 81.1226 7.0283C81.3615 7.53415 81.4809 8.14538 81.4809 8.86199H77.2656C77.2094 8.70743 77.118 8.58799 76.9916 8.50368C76.8651 8.40532 76.6824 8.32804 76.4436 8.27184C76.2047 8.21563 75.9026 8.1805 75.5373 8.16645C75.186 8.1524 74.7504 8.14538 74.2305 8.14538C73.9073 8.14538 73.5982 8.1524 73.3031 8.16645C73.0221 8.16645 72.7692 8.1805 72.5443 8.20861C72.3336 8.23671 72.165 8.28589 72.0385 8.35614C71.912 8.4264 71.8488 8.51773 71.8488 8.63014C71.8488 8.7004 71.8839 8.76363 71.9542 8.81984C72.0245 8.86199 72.1579 8.90414 72.3547 8.9463C72.5654 8.98845 72.8605 9.02358 73.2399 9.05168C73.6193 9.07978 74.1181 9.10789 74.7363 9.13599C75.9869 9.19219 77.0618 9.26948 77.9611 9.36783C78.8744 9.45214 79.6262 9.61373 80.2163 9.8526C80.8065 10.0915 81.2421 10.4287 81.5231 10.8643C81.8182 11.2858 81.9657 11.8549 81.9657 12.5715C81.9657 13.3724 81.7971 14.0328 81.4599 14.5527C81.1367 15.0726 80.6589 15.4801 80.0266 15.7752C79.3943 16.0703 78.6215 16.281 77.7082 16.4075C76.8089 16.5199 75.7761 16.5761 74.6099 16.5761C73.4717 16.5761 72.4671 16.5199 71.5959 16.4075C70.7388 16.281 70.0151 16.0632 69.425 15.7541C68.8348 15.445 68.3782 15.0235 68.055 14.4895C67.7318 13.9415 67.5421 13.246 67.4859 12.4029H71.7013Z" fill="#0F0D79"/>
  <path d="M51.266 5.04706H61.0878C61.6639 5.04706 62.2049 5.08922 62.7107 5.17353C63.2306 5.25783 63.6803 5.41942 64.0597 5.65829C64.4531 5.88311 64.7622 6.20629 64.987 6.62783C65.2119 7.04937 65.3243 7.59034 65.3243 8.25075C65.3243 8.50367 65.2751 8.77064 65.1767 9.05167C65.0784 9.33269 64.9519 9.57859 64.7974 9.78936C65.1486 9.92987 65.4367 10.0985 65.6615 10.2952C65.8863 10.4919 66.062 10.7238 66.1884 10.9907C66.3149 11.2577 66.3992 11.5668 66.4413 11.9181C66.4975 12.2553 66.5257 12.6418 66.5257 13.0773C66.5257 14.3139 66.2306 15.178 65.6404 15.6698C65.0503 16.1616 64.2072 16.4075 63.1112 16.4075H51.266V5.04706ZM62.4367 13.1195C62.5913 13.1195 62.7388 13.0773 62.8794 12.993C63.0339 12.9087 63.1112 12.7752 63.1112 12.5926C63.1112 12.4099 63.0339 12.2835 62.8794 12.2132C62.7388 12.1289 62.5913 12.0867 62.4367 12.0867H55.4814V13.1195H62.4367ZM61.4461 9.3889C61.6007 9.3889 61.7553 9.35377 61.9098 9.28351C62.0784 9.21326 62.1627 9.08679 62.1627 8.90413C62.1627 8.70741 62.0644 8.5669 61.8677 8.48259C61.685 8.39828 61.5164 8.35613 61.3618 8.35613H55.4814V9.3889H61.4461Z" fill="#0F0D79"/>
  <path d="M34.3333 5.06812H38.9702L42.1528 13.4989L45.3565 5.06812H49.9934L45.2933 16.4075H39.0335L34.3333 5.06812Z" fill="#0F0D79"/>
  <path fill-rule="evenodd" clip-rule="evenodd" d="M0.2761 0.774902H26.9808V13.8824H22.9745V4.88487H4.28243V13.8824H0.276062L0.2761 0.774902ZM20.6956 7.1638V13.8824H17.6852V9.44217H15.852V13.8824H11.4191V9.44216H9.58587V13.8824H6.56136V7.1638H20.6956Z" fill="#0F0D79"/>
  <path fill-rule="evenodd" clip-rule="evenodd" d="M9.58628 16.1922V18.1086H11.4195V16.1922H15.8523V18.1086H17.6855V16.1922H20.696V20.3861H6.56174V16.1922H9.58628ZM22.9749 22.665V16.1922H26.9813V27.4084H0.276751L0.276646 16.1922H4.28281V22.665H22.9749Z" fill="#26A95F"/>
  <path fill-rule="evenodd" clip-rule="evenodd" d="M20.7467 7.00407H6.51114V20.5451H20.7467V7.00407ZM15.852 9.44217H17.6852L17.6855 18.1086H15.8523L15.852 9.44217ZM9.58587 9.44216H11.4191L11.4195 18.1086H9.58628L9.58587 9.44216Z" fill="#E40004"/>
  <path d="M80.834 21.5509C81.0856 21.5509 81.2855 21.6315 81.4336 21.7925C81.5817 21.9521 81.6557 22.1728 81.6557 22.4546V23.8868H81.0712V22.5754C81.0712 22.4029 81.0331 22.2728 80.9569 22.185C80.8807 22.0973 80.7779 22.0535 80.6485 22.0535C80.5162 22.0535 80.4077 22.0966 80.3228 22.1829C80.2394 22.2677 80.1977 22.3892 80.1977 22.5474V23.8868H79.6154V22.5754C79.6154 22.4029 79.5766 22.2728 79.4989 22.185C79.4227 22.0973 79.3199 22.0535 79.1905 22.0535C79.0582 22.0535 78.9504 22.0959 78.867 22.1807C78.785 22.2656 78.744 22.3878 78.744 22.5474V23.8868H78.1617V21.6027H78.6858V21.9219C78.8325 21.6746 79.0654 21.5509 79.3846 21.5509C79.5485 21.5509 79.6916 21.5869 79.8138 21.6588C79.936 21.7307 80.0302 21.8342 80.0964 21.9694C80.2517 21.6904 80.4975 21.5509 80.834 21.5509Z" fill="#0F0D79"/>
  <path d="M76.7466 21.5509C77.1003 21.5509 77.3749 21.6624 77.5705 21.8852C77.7675 22.1081 77.8624 22.4058 77.8552 22.7782L77.8509 22.9097H76.1987C76.2174 23.111 76.2764 23.2599 76.3756 23.3562C76.4763 23.4511 76.6071 23.4985 76.7681 23.4985C77.0011 23.4985 77.1542 23.4058 77.2275 23.2203H77.8056C77.7524 23.4331 77.6345 23.6064 77.4519 23.7401C77.2707 23.8738 77.0413 23.9407 76.7638 23.9407C76.4058 23.9407 76.1247 23.8329 75.9205 23.6172C75.7163 23.4001 75.6142 23.1146 75.6142 22.7609C75.6142 22.4 75.7192 22.1081 75.9291 21.8852C76.1391 21.6624 76.4116 21.5509 76.7466 21.5509ZM76.2074 22.5301H77.2621C77.2477 22.3576 77.1959 22.2246 77.1068 22.1311C77.0176 22.0377 76.899 21.9909 76.7509 21.9909C76.6085 21.9909 76.4892 22.0369 76.3929 22.129C76.298 22.2196 76.2361 22.3533 76.2074 22.5301Z" fill="#0F0D79"/>
  <path d="M75.4764 22.0837H74.9911V23.0995C74.9911 23.3152 75.091 23.4231 75.2909 23.4231C75.3671 23.4231 75.4289 23.4173 75.4764 23.4058V23.8782C75.3886 23.9012 75.2815 23.9127 75.155 23.9127C74.6575 23.9127 74.4087 23.651 74.4087 23.1276V22.0837H74.0507V21.6027H74.4087V20.9578H74.9911V21.6027H75.4764V22.0837Z" fill="#0F0D79"/>
  <path d="M72.9567 23.9407C72.3427 23.9407 71.989 23.7006 71.8955 23.2203H72.4671C72.5174 23.4259 72.6792 23.5287 72.9524 23.5287C73.0933 23.5287 73.199 23.5057 73.2694 23.4597C73.3399 23.4123 73.3751 23.3483 73.3751 23.2678C73.3751 23.1254 73.2795 23.0384 73.0882 23.0068L72.5986 22.9141C72.37 22.8709 72.2032 22.7961 72.0983 22.6897C71.9933 22.5819 71.9408 22.4388 71.9408 22.2605C71.9408 22.0607 72.0242 21.8924 72.191 21.7558C72.3578 21.6192 72.5907 21.5509 72.8898 21.5509C73.1889 21.5509 73.4254 21.6178 73.5994 21.7515C73.7734 21.8853 73.8798 22.07 73.9186 22.3058H73.3449C73.3104 22.0758 73.1573 21.9607 72.8855 21.9607C72.7575 21.9607 72.659 21.9859 72.59 22.0362C72.5224 22.0851 72.4886 22.1484 72.4886 22.226C72.4886 22.2922 72.5109 22.3454 72.5555 22.3856C72.6001 22.4259 72.6792 22.4554 72.7928 22.4741L73.2737 22.5582C73.5153 22.5984 73.6893 22.6746 73.7957 22.7868C73.9021 22.8975 73.9553 23.0449 73.9553 23.2289C73.9553 23.3267 73.9351 23.4173 73.8949 23.5007C73.8561 23.5841 73.7971 23.6596 73.718 23.7272C73.6404 23.7933 73.5361 23.8458 73.4053 23.8846C73.2759 23.922 73.1263 23.9407 72.9567 23.9407Z" fill="#0F0D79"/>
  <path d="M71.3329 21.6027H71.926L70.578 24.7171H69.9612L70.4421 23.684L69.5665 21.6027H70.1855L70.7419 23.0995L71.3329 21.6027Z" fill="#0F0D79"/>
  <path d="M68.3003 23.9407C67.4865 23.9407 67.0443 23.6251 66.9738 22.9939H67.6015C67.6561 23.3088 67.8876 23.4662 68.296 23.4662C68.4987 23.4662 68.6504 23.431 68.7511 23.3605C68.8532 23.2886 68.9042 23.1945 68.9042 23.078C68.9042 22.881 68.7662 22.7545 68.4901 22.6984L67.7913 22.5625C67.5454 22.5151 67.357 22.4194 67.2262 22.2757C67.0968 22.1319 67.0321 21.9579 67.0321 21.7537C67.0321 21.6286 67.058 21.5107 67.1097 21.4C67.1629 21.2893 67.2377 21.1922 67.334 21.1088C67.4318 21.024 67.5562 20.9571 67.7072 20.9082C67.8581 20.8593 68.0264 20.8349 68.2119 20.8349C68.5814 20.8349 68.8754 20.9125 69.094 21.0678C69.3126 21.2217 69.4362 21.4417 69.465 21.7278H68.8352C68.8107 21.584 68.7468 21.4784 68.6432 21.4108C68.5411 21.3418 68.3959 21.3072 68.2075 21.3072C68.0321 21.3072 67.897 21.3439 67.8021 21.4172C67.7072 21.4891 67.6597 21.5804 67.6597 21.6912C67.6597 21.7803 67.6899 21.8536 67.7503 21.9112C67.8107 21.9687 67.9085 22.0104 68.0436 22.0362L68.7468 22.1678C69.0099 22.2138 69.2061 22.3102 69.3356 22.4568C69.4664 22.6021 69.5318 22.7796 69.5318 22.9896C69.5318 23.1233 69.5059 23.2477 69.4542 23.3627C69.4024 23.4763 69.3262 23.5769 69.2256 23.6646C69.1263 23.7509 68.9977 23.8185 68.8395 23.8674C68.6813 23.9163 68.5016 23.9407 68.3003 23.9407Z" fill="#0F0D79"/>
  <path d="M65.2308 21.6027H65.7635V23.7725C65.7635 23.9134 65.742 24.0428 65.6988 24.1607C65.6557 24.2786 65.5903 24.3836 65.5026 24.4756C65.4148 24.569 65.2969 24.6417 65.1488 24.6934C65.0007 24.7452 64.8289 24.7711 64.6334 24.7711C64.4321 24.7711 64.2588 24.7509 64.1136 24.7107C63.9698 24.6704 63.8555 24.6122 63.7706 24.536C63.6872 24.4612 63.624 24.3771 63.5808 24.2836C63.5391 24.1916 63.5118 24.0845 63.4989 23.9623H64.1136C64.1251 24.0874 64.1711 24.1823 64.2516 24.247C64.3321 24.3131 64.4594 24.3462 64.6334 24.3462C64.8117 24.3462 64.9483 24.2987 65.0432 24.2038C65.1381 24.1104 65.1855 23.9738 65.1855 23.794V23.4317C65.0331 23.6646 64.7994 23.7811 64.4845 23.7811C64.3451 23.7811 64.2128 23.7552 64.0877 23.7034C63.964 23.6502 63.8555 23.5762 63.762 23.4813C63.67 23.3864 63.5967 23.2685 63.542 23.1276C63.4888 22.9867 63.4622 22.8321 63.4622 22.6639C63.4622 22.3288 63.56 22.06 63.7555 21.8572C63.9511 21.653 64.1941 21.5509 64.4845 21.5509C64.8181 21.5509 65.0669 21.6804 65.2308 21.9392V21.6027ZM64.6161 23.3174C64.7815 23.3174 64.9173 23.2563 65.0237 23.134C65.1316 23.0118 65.1855 22.8551 65.1855 22.6639C65.1855 22.4697 65.1316 22.313 65.0237 22.1937C64.9159 22.0743 64.78 22.0147 64.6161 22.0147C64.4493 22.0147 64.3134 22.0743 64.2085 22.1937C64.1035 22.3116 64.051 22.4683 64.051 22.6639C64.051 22.8594 64.1049 23.0176 64.2128 23.1384C64.3206 23.2577 64.4551 23.3174 64.6161 23.3174Z" fill="#0F0D79"/>
  <path d="M62.3406 21.5509C62.5922 21.5509 62.7949 21.6264 62.9488 21.7774C63.1026 21.9284 63.1796 22.1513 63.1796 22.446V23.8868H62.5972V22.5797C62.5972 22.3971 62.5577 22.2613 62.4786 22.1721C62.3995 22.0815 62.2902 22.0362 62.1508 22.0362C62.0099 22.0362 61.8955 22.0837 61.8078 22.1786C61.7216 22.272 61.6784 22.4058 61.6784 22.5797V23.8868H61.0961V21.6027H61.6202V21.9262C61.7697 21.676 62.0099 21.5509 62.3406 21.5509Z" fill="#0F0D79"/>
  <path d="M60.3845 21.277C60.281 21.277 60.1962 21.2433 60.13 21.1757C60.0639 21.1081 60.0308 21.0269 60.0308 20.932C60.0308 20.8356 60.0639 20.7544 60.13 20.6882C60.1962 20.6207 60.281 20.5869 60.3845 20.5869C60.4837 20.5869 60.5657 20.6207 60.6304 20.6882C60.6965 20.7544 60.7296 20.8356 60.7296 20.932C60.7296 21.0269 60.6965 21.1081 60.6304 21.1757C60.5657 21.2433 60.4837 21.277 60.3845 21.277ZM60.089 23.8868V21.6027H60.6714V23.8868H60.089Z" fill="#0F0D79"/>
  <path d="M59.9163 23.8868H59.2498L58.3439 22.761V23.8868H57.7616V20.7055H58.3439V22.4741L59.2282 21.6028H59.8731L58.8788 22.6057L59.9163 23.8868Z" fill="#0F0D79"/>
  <path d="M56.3036 23.9407C55.9643 23.9407 55.6853 23.8321 55.4668 23.615C55.2496 23.3979 55.1411 23.1089 55.1411 22.748C55.1411 22.3871 55.2496 22.0973 55.4668 21.8788C55.6853 21.6602 55.9643 21.5509 56.3036 21.5509C56.6401 21.5509 56.9169 21.6602 57.134 21.8788C57.3525 22.0973 57.4618 22.3871 57.4618 22.748C57.4618 22.9263 57.4323 23.0909 57.3734 23.2419C57.3144 23.3914 57.2332 23.5172 57.1297 23.6193C57.0276 23.72 56.9054 23.7991 56.763 23.8566C56.6207 23.9127 56.4675 23.9407 56.3036 23.9407ZM55.8852 23.2721C55.9902 23.4015 56.1282 23.4662 56.2993 23.4662C56.4704 23.4662 56.6077 23.4015 56.7112 23.2721C56.8162 23.1427 56.8687 22.968 56.8687 22.748C56.8687 22.5265 56.8162 22.3504 56.7112 22.2196C56.6077 22.0887 56.4704 22.0233 56.2993 22.0233C56.1282 22.0233 55.9902 22.0894 55.8852 22.2217C55.7817 22.3526 55.7299 22.528 55.7299 22.748C55.7299 22.968 55.7817 23.1427 55.8852 23.2721Z" fill="#0F0D79"/>
  <path d="M53.808 23.9407C53.4687 23.9407 53.1897 23.8321 52.9711 23.615C52.754 23.3979 52.6455 23.1089 52.6455 22.748C52.6455 22.3871 52.754 22.0973 52.9711 21.8788C53.1897 21.6602 53.4687 21.5509 53.808 21.5509C54.1445 21.5509 54.9001 21.6602 54.6384 21.8788C54.8569 22.0973 54.9662 22.3871 54.9662 22.748C54.9662 22.9263 54.9367 23.0909 54.8778 23.2419C54.8188 23.3914 54.7376 23.5172 54.6341 23.6193C54.532 23.72 54.4097 23.7991 54.2674 23.8566C54.125 23.9127 53.9719 23.9407 53.808 23.9407ZM53.3896 23.2721C53.4945 23.4015 53.6326 23.4662 53.8037 23.4662C53.9748 23.4662 54.1121 23.4015 54.2156 23.2721C54.3206 23.1427 54.3731 22.968 54.3731 22.748C54.3731 22.5265 54.3206 22.3504 54.2156 22.2196C54.1121 22.0887 53.9748 22.0233 53.8037 22.0233C53.6326 22.0233 53.4945 22.0894 53.3896 22.2217C53.286 22.3526 53.2343 22.528 53.2343 22.748C53.2343 22.968 53.286 23.1427 53.3896 23.2721Z" fill="#0F0D79"/>
  <path d="M51.8213 22.3102C52.0356 22.3591 52.1909 22.4432 52.2872 22.5625C52.385 22.6804 52.4339 22.8336 52.4339 23.0219C52.4339 23.2808 52.344 23.49 52.1643 23.6496C51.986 23.8077 51.7214 23.8868 51.3706 23.8868H49.9471V20.8867H51.2864C51.6258 20.8867 51.8796 20.9579 52.0478 21.1002C52.2175 21.2411 52.3023 21.4352 52.3023 21.6826C52.3023 21.8321 52.2613 21.9622 52.1794 22.0729C52.0988 22.1837 51.9795 22.2627 51.8213 22.3102ZM51.2066 21.3547H50.5531V22.1247H51.2325C51.3792 22.1247 51.4928 22.0895 51.5733 22.019C51.6553 21.9471 51.6962 21.8529 51.6962 21.7365C51.6962 21.6114 51.6538 21.5165 51.569 21.4518C51.4842 21.3871 51.3634 21.3547 51.2066 21.3547ZM51.2908 23.4188C51.6474 23.4188 51.8257 23.2772 51.8257 22.9939C51.8257 22.7236 51.6488 22.5884 51.2951 22.5884H50.5531V23.4188H51.2908Z" fill="#0F0D79"/>
  <path d="M47.5594 21.5509C47.9131 21.5509 48.1877 21.6624 48.3833 21.8852C48.5803 22.1081 48.6752 22.4058 48.668 22.7782L48.6637 22.9097H47.0115C47.0302 23.111 47.0892 23.2599 47.1884 23.3562C47.289 23.4511 47.4199 23.4985 47.5809 23.4985C47.8139 23.4985 47.967 23.4058 48.0403 23.2203H48.6184C48.5652 23.4331 48.4473 23.6064 48.2646 23.7401C48.0835 23.8738 47.8541 23.9407 47.5766 23.9407C47.2186 23.9407 46.9375 23.8329 46.7333 23.6172C46.5291 23.4001 46.427 23.1146 46.427 22.7609C46.427 22.4 46.532 22.1081 46.7419 21.8852C46.9519 21.6624 47.2243 21.5509 47.5594 21.5509ZM47.0202 22.5301H48.0748C48.0605 22.3576 48.0087 22.2246 47.9196 22.1311C47.8304 22.0377 47.7118 21.9909 47.5637 21.9909C47.4213 21.9909 47.302 22.0369 47.2056 22.129C47.1107 22.2196 47.0489 22.3533 47.0202 22.5301Z" fill="#0F0D79"/>
  <path d="M46.1229 20.7055V23.8868H45.5406V20.7055H46.1229Z" fill="#0F0D79"/>
  <path d="M44.1514 23.9407C43.8164 23.9407 43.5425 23.8329 43.3296 23.6172C43.1168 23.4015 43.0104 23.1103 43.0104 22.7437C43.0104 22.3784 43.1168 22.0887 43.3296 21.8745C43.5425 21.6588 43.8164 21.5509 44.1514 21.5509C44.4634 21.5509 44.7093 21.6286 44.889 21.7839C45.0688 21.9377 45.1788 22.1455 45.219 22.4072H44.628C44.5748 22.1513 44.4145 22.0233 44.1471 22.0233C43.9803 22.0233 43.848 22.0866 43.7502 22.2131C43.6525 22.3396 43.6036 22.515 43.6036 22.7393C43.6036 22.9651 43.6517 23.1427 43.7481 23.2721C43.8444 23.4015 43.9789 23.4662 44.1514 23.4662C44.288 23.4662 44.3937 23.4346 44.4684 23.3713C44.5447 23.308 44.5979 23.2117 44.628 23.0823H45.2147C45.1759 23.344 45.0644 23.5525 44.8804 23.7078C44.6978 23.863 44.4548 23.9407 44.1514 23.9407Z" fill="#0F0D79"/>
  <path d="M42.4152 21.277C42.3117 21.277 42.2269 21.2433 42.1607 21.1757C42.0946 21.1081 42.0615 21.0269 42.0615 20.932C42.0615 20.8356 42.0946 20.7544 42.1607 20.6882C42.2269 20.6207 42.3117 20.5869 42.4152 20.5869C42.5144 20.5869 42.5964 20.6207 42.6611 20.6882C42.7272 20.7544 42.7603 20.8356 42.7603 20.932C42.7603 21.0269 42.7272 21.1081 42.6611 21.1757C42.5964 21.2433 42.5144 21.277 42.4152 21.277ZM42.1197 23.8868V21.6027H42.7021V23.8868H42.1197Z" fill="#0F0D79"/>
  <path d="M40.8599 21.551C41.1115 21.551 41.3164 21.6294 41.4746 21.7861C41.6328 21.9428 41.7119 22.1642 41.7119 22.4504V23.8868H41.1295V22.5668C41.1295 22.3957 41.0878 22.2656 41.0044 22.1765C40.921 22.0859 40.8125 22.0406 40.6787 22.0406C40.5407 22.0406 40.4278 22.0873 40.3401 22.1808C40.2538 22.2742 40.2107 22.4058 40.2107 22.5755V23.8868H39.6284V20.7055H40.2107V21.9069C40.3473 21.6696 40.5637 21.551 40.8599 21.551Z" fill="#0F0D79"/>
  <path d="M38.2134 21.5509C38.5671 21.5509 38.8417 21.6624 39.0373 21.8852C39.2343 22.1081 39.3292 22.4058 39.322 22.7782L39.3177 22.9097H37.6656C37.6843 23.111 37.7432 23.2599 37.8424 23.3562C37.9431 23.4511 38.0739 23.4985 38.235 23.4985C38.4679 23.4985 38.621 23.4058 38.6944 23.2203H39.2724C39.2192 23.4331 39.1013 23.6064 38.9187 23.7401C38.7375 23.8738 38.5082 23.9407 38.2306 23.9407C37.8726 23.9407 37.5915 23.8329 37.3873 23.6172C37.1832 23.4001 37.0811 23.1146 37.0811 22.7609C37.0811 22.4 37.186 22.1081 37.396 21.8852C37.6059 21.6624 37.8784 21.5509 38.2134 21.5509ZM37.6742 22.5301H38.7289C38.7145 22.3576 38.6627 22.2246 38.5736 22.1311C38.4844 22.0377 38.3658 21.9909 38.2177 21.9909C38.0754 21.9909 37.956 22.0369 37.8597 22.129C37.7648 22.2196 37.7029 22.3533 37.6742 22.5301Z" fill="#0F0D79"/>
  <path d="M36.6519 20.8867H37.2752L36.0739 23.8868H35.5045L34.3333 20.8867H34.9523L35.8043 23.2204L36.6519 20.8867Z" fill="#0F0D79"/>
</svg>
